<svg width="728" height="542" viewBox="0 0 728 542" fill="none" xmlns="http://www.w3.org/2000/svg">
<path d="M727.011 476.047H0V476.41H727.011V476.047Z" fill="#EBEBEB"/>
<path d="M630.74 491.518H582.583V491.881H630.74V491.518Z" fill="#EBEBEB"/>
<path d="M455.211 491.343H442.575V491.707H455.211V491.343Z" fill="#EBEBEB"/>
<path d="M654.165 499.442H626.262V499.806H654.165V499.442Z" fill="#EBEBEB"/>
<path d="M166.631 504.269H103.832V504.633H166.631V504.269Z" fill="#EBEBEB"/>
<path d="M161.237 488.391H152.033V488.755H161.237V488.391Z" fill="#EBEBEB"/>
<path d="M361.252 489.947H272.702V490.311H361.252V489.947Z" fill="#EBEBEB"/>
<path d="M344.603 411.197H63.846C61.6466 411.194 59.5386 410.317 57.9847 408.761C56.4308 407.204 55.5581 405.094 55.5581 402.895V8.22976C55.5773 6.04295 56.4584 3.952 58.0102 2.41109C59.562 0.870171 61.6591 0.00374612 63.846 0H344.603C346.805 0 348.917 0.874722 350.474 2.43174C352.031 3.98875 352.906 6.10051 352.906 8.30246V402.895C352.906 405.097 352.031 407.209 350.474 408.766C348.917 410.323 346.805 411.197 344.603 411.197ZM63.846 0.290805C61.743 0.294657 59.7274 1.13278 58.2417 2.6212C56.756 4.10963 55.9216 6.12674 55.9216 8.22976V402.895C55.9216 404.998 56.756 407.015 58.2417 408.503C59.7274 409.992 61.743 410.83 63.846 410.834H344.603C346.707 410.83 348.725 409.992 350.213 408.504C351.701 407.016 352.538 404.999 352.542 402.895V8.22976C352.538 6.1254 351.701 4.10833 350.213 2.62032C348.725 1.13231 346.707 0.294649 344.603 0.290805H63.846Z" fill="#EBEBEB"/>
<path d="M659.123 411.197H378.351C376.15 411.194 374.041 410.318 372.484 408.761C370.928 407.205 370.052 405.096 370.048 402.895V8.22976C370.071 6.04163 370.956 3.95069 372.51 2.41018C374.064 0.869663 376.163 0.00370527 378.351 0H659.123C661.307 0.00756745 663.4 0.875683 664.949 2.41619C666.498 3.95669 667.377 6.04546 667.396 8.22976V402.895C667.396 405.092 666.525 407.199 664.975 408.755C663.424 410.312 661.319 411.19 659.123 411.197ZM378.351 0.290805C376.247 0.294649 374.229 1.13231 372.741 2.62032C371.253 4.10833 370.416 6.1254 370.412 8.22976V402.895C370.416 404.999 371.253 407.016 372.741 408.504C374.229 409.992 376.247 410.83 378.351 410.834H659.123C661.227 410.83 663.244 409.992 664.732 408.504C666.22 407.016 667.058 404.999 667.062 402.895V8.22976C667.058 6.1254 666.22 4.10833 664.732 2.62032C663.244 1.13231 661.227 0.294649 659.123 0.290805H378.351Z" fill="#EBEBEB"/>
<path d="M623.616 60.0947H103.396V276.584H623.616V60.0947Z" fill="#F0F0F0"/>
<path d="M613.437 266.42V70.2874L113.574 70.2874V266.42H613.437Z" fill="#FAFAFA"/>
<path d="M179.383 266.406L230.652 70.2729H268.456L217.187 266.406H179.383Z" fill="white"/>
<path d="M225.911 266.406L277.18 70.2729H294.09L242.822 266.406H225.911Z" fill="white"/>
<path d="M308.645 266.406L359.929 70.2729H397.733L346.45 266.406H308.645Z" fill="white"/>
<path d="M403.971 266.406L455.24 70.2729H472.164L420.881 266.406H403.971Z" fill="white"/>
<path d="M247.489 266.42V70.2874H244.901V266.42H247.489Z" fill="#E0E0E0"/>
<path d="M116.162 266.42L116.162 70.2874H113.574L113.574 266.42H116.162Z" fill="#E0E0E0"/>
<path d="M244.901 266.42V70.2874H234.723V266.42H244.901Z" fill="#F0F0F0"/>
<path d="M373.684 266.42V70.2874H371.096V266.42H373.684Z" fill="#E0E0E0"/>
<path d="M371.095 266.42V70.2874H360.917V266.42H371.095Z" fill="#F0F0F0"/>
<path d="M499.936 266.406V70.2729H497.348V266.406H499.936Z" fill="#E0E0E0"/>
<path d="M497.348 266.406V70.2729H487.17V266.406H497.348Z" fill="#F0F0F0"/>
<path d="M626.204 276.584V60.0947H623.615V276.584H626.204Z" fill="#E0E0E0"/>
<path d="M632.02 45.2346H94.9913C94.3947 45.2308 93.8237 44.9921 93.4019 44.5703C92.98 44.1484 92.7414 43.5774 92.7375 42.9809C92.7375 42.3818 92.9745 41.807 93.3968 41.3821C93.819 40.9571 94.3922 40.7164 94.9913 40.7126H632.02C632.619 40.7164 633.192 40.9571 633.614 41.3821C634.036 41.807 634.273 42.3818 634.273 42.9809C634.27 43.5774 634.031 44.1484 633.609 44.5703C633.187 44.9921 632.616 45.2308 632.02 45.2346Z" fill="#E0E0E0"/>
<g opacity="0.6">
<path opacity="0.6" d="M206.966 36.3506H97.0996V431.365H206.966V36.3506Z" fill="#F5F5F5"/>
<path opacity="0.6" d="M156.627 434.593H147.423L150.011 39.5785H154.126L156.627 434.593Z" fill="#E6E6E6"/>
<path opacity="0.6" d="M126.137 434.593H121.687L122.938 39.5785H124.93L126.137 434.593Z" fill="#E6E6E6"/>
<path opacity="0.6" d="M187.205 434.593H182.756L184.007 39.5785H185.999L187.205 434.593Z" fill="#E6E6E6"/>
</g>
<g opacity="0.6">
<path opacity="0.6" d="M628.603 36.3506H518.737V431.365H628.603V36.3506Z" fill="#F5F5F5"/>
<path opacity="0.6" d="M561.79 434.593H552.586L555.175 39.5785H559.289L561.79 434.593Z" fill="#E6E6E6"/>
<path opacity="0.6" d="M541.478 434.593H537.043L538.279 39.5785H540.271L541.478 434.593Z" fill="#E6E6E6"/>
<path opacity="0.6" d="M588.486 434.593H584.052L585.302 39.5785H587.279L588.486 434.593Z" fill="#E6E6E6"/>
<path opacity="0.6" d="M611.111 434.593H606.676L607.912 39.5785H609.904L611.111 434.593Z" fill="#E6E6E6"/>
</g>
<path d="M472.863 473.575H493.51V355.247H472.863V473.575Z" fill="#E6E6E6"/>
<path d="M233.501 473.575L480.816 473.575V355.247H233.501L233.501 473.575Z" fill="#F0F0F0"/>
<path d="M475.262 473.575H467.817H244.174V476.047H467.817H475.262H482.837V473.575H475.262Z" fill="#E0E0E0"/>
<path opacity="0.5" d="M240.553 410.398L473.764 410.398V362.648H240.553V410.398Z" fill="#FAFAFA"/>
<path opacity="0.5" d="M240.553 465.854L473.764 465.854V418.104H240.553V465.854Z" fill="#FAFAFA"/>
<path d="M275.901 386.523C275.901 387.561 275.593 388.576 275.016 389.439C274.439 390.302 273.619 390.975 272.66 391.372C271.701 391.769 270.646 391.873 269.628 391.671C268.609 391.468 267.674 390.968 266.94 390.234C266.206 389.5 265.706 388.565 265.503 387.547C265.301 386.528 265.405 385.473 265.802 384.514C266.199 383.555 266.872 382.735 267.735 382.158C268.599 381.581 269.613 381.274 270.652 381.274C271.341 381.274 272.023 381.409 272.66 381.673C273.297 381.937 273.876 382.324 274.363 382.811C274.851 383.298 275.237 383.877 275.501 384.514C275.765 385.151 275.901 385.833 275.901 386.523Z" fill="#E0E0E0"/>
<path d="M448.9 386.523C448.9 387.561 448.592 388.576 448.016 389.439C447.439 390.302 446.619 390.975 445.66 391.372C444.701 391.769 443.645 391.873 442.627 391.671C441.609 391.468 440.674 390.968 439.94 390.234C439.205 389.5 438.706 388.565 438.503 387.547C438.3 386.528 438.404 385.473 438.802 384.514C439.199 383.555 439.872 382.735 440.735 382.158C441.598 381.581 442.613 381.274 443.651 381.274C444.34 381.274 445.023 381.409 445.66 381.673C446.297 381.937 446.875 382.324 447.363 382.811C447.85 383.298 448.237 383.877 448.501 384.514C448.764 385.151 448.9 385.833 448.9 386.523Z" fill="#E0E0E0"/>
<path d="M270.652 447.228C273.551 447.228 275.901 444.878 275.901 441.979C275.901 439.08 273.551 436.73 270.652 436.73C267.753 436.73 265.403 439.08 265.403 441.979C265.403 444.878 267.753 447.228 270.652 447.228Z" fill="#E0E0E0"/>
<path d="M448.9 442.023C448.9 443.061 448.592 444.076 448.016 444.939C447.439 445.802 446.619 446.475 445.66 446.872C444.701 447.269 443.645 447.373 442.627 447.171C441.609 446.968 440.674 446.468 439.94 445.734C439.205 445 438.706 444.065 438.503 443.047C438.3 442.029 438.404 440.973 438.802 440.014C439.199 439.055 439.872 438.235 440.735 437.658C441.598 437.081 442.613 436.774 443.651 436.774C445.043 436.774 446.378 437.327 447.363 438.311C448.347 439.295 448.9 440.631 448.9 442.023Z" fill="#E0E0E0"/>
<path d="M362.4 386.523C362.4 387.561 362.093 388.576 361.516 389.439C360.939 390.302 360.119 390.975 359.16 391.372C358.201 391.769 357.146 391.873 356.127 391.671C355.109 391.468 354.174 390.968 353.44 390.234C352.706 389.5 352.206 388.565 352.003 387.547C351.801 386.528 351.905 385.473 352.302 384.514C352.699 383.555 353.372 382.735 354.235 382.158C355.098 381.581 356.113 381.274 357.151 381.274C357.841 381.274 358.523 381.409 359.16 381.673C359.797 381.937 360.376 382.324 360.863 382.811C361.35 383.298 361.737 383.877 362.001 384.514C362.265 385.151 362.4 385.833 362.4 386.523Z" fill="#E0E0E0"/>
<path d="M357.151 447.228C360.05 447.228 362.4 444.878 362.4 441.979C362.4 439.08 360.05 436.73 357.151 436.73C354.252 436.73 351.902 439.08 351.902 441.979C351.902 444.878 354.252 447.228 357.151 447.228Z" fill="#E0E0E0"/>
<path d="M465.52 335.152C465.52 340.481 463.403 345.593 459.634 349.361C455.866 353.13 450.754 355.247 445.425 355.247C440.096 355.247 434.984 353.13 431.216 349.361C427.448 345.593 425.33 340.481 425.33 335.152H465.52Z" fill="#F0F0F0"/>
<path d="M306.639 331.517C306.639 337.799 304.143 343.824 299.701 348.266C295.259 352.708 289.235 355.203 282.953 355.203C276.671 355.203 270.646 352.708 266.204 348.266C261.762 343.824 259.267 337.799 259.267 331.517H306.639Z" fill="#F0F0F0"/>
<path d="M408.464 341.303C408.464 345.001 406.995 348.548 404.38 351.163C401.765 353.778 398.218 355.247 394.52 355.247C390.822 355.247 387.275 353.778 384.66 351.163C382.045 348.548 380.576 345.001 380.576 341.303H408.464Z" fill="#F0F0F0"/>
<path d="M363.506 541.71C519.206 541.71 645.426 534.341 645.426 525.251C645.426 516.161 519.206 508.791 363.506 508.791C207.805 508.791 81.5852 516.161 81.5852 525.251C81.5852 534.341 207.805 541.71 363.506 541.71Z" fill="#F5F5F5"/>
<path d="M506.218 87.7648C503.121 84.6677 497.159 72.9337 502.874 67.4085C508.588 61.8832 513.677 66.8995 514.069 69.5895C514.462 72.2794 513.415 94.9476 506.218 87.7648Z" fill="#263238"/>
<path d="M504.909 509.853L491.925 509.969L488.391 479.958L501.361 479.842L504.909 509.853Z" fill="#FF8B7B"/>
<path d="M491.91 508.471L506.072 508.341C506.333 508.344 506.587 508.431 506.796 508.588C507.005 508.744 507.159 508.963 507.235 509.213L510.667 520.714C510.758 520.982 510.783 521.268 510.741 521.547C510.698 521.827 510.589 522.092 510.422 522.32C510.255 522.549 510.035 522.733 509.782 522.859C509.528 522.984 509.248 523.047 508.966 523.041C503.862 523.041 496.447 522.765 490.063 522.823C482.561 522.823 479.216 523.346 470.405 523.433C465.083 523.433 463.135 518.112 465.389 517.617C475.378 515.305 480.54 515 488.9 509.518C489.78 508.884 490.826 508.52 491.91 508.471Z" fill="#263238"/>
<path opacity="0.2" d="M488.391 479.973L490.223 495.443L503.193 495.327L501.376 479.856L488.391 479.973Z" fill="black"/>
<path d="M486.545 510.783C487.945 510.758 489.339 510.588 490.703 510.274C490.768 510.265 490.827 510.234 490.872 510.186C490.917 510.139 490.945 510.078 490.95 510.013C490.956 509.95 490.943 509.887 490.912 509.832C490.88 509.778 490.833 509.734 490.776 509.707C490.165 509.402 484.713 506.799 483.215 507.715C483.077 507.804 482.964 507.927 482.887 508.072C482.811 508.217 482.773 508.38 482.779 508.544C482.775 508.824 482.837 509.101 482.958 509.353C483.079 509.605 483.256 509.826 483.477 509.998C484.386 510.588 485.464 510.864 486.545 510.783ZM489.656 509.853C486.85 510.347 484.713 510.245 483.84 509.547C483.689 509.429 483.569 509.276 483.491 509.102C483.412 508.927 483.377 508.735 483.39 508.544C483.381 508.485 483.39 508.424 483.416 508.369C483.442 508.315 483.483 508.27 483.535 508.239C484.349 507.744 487.432 508.908 489.656 509.853Z" fill="#212121"/>
<path d="M490.645 510.362C490.714 510.357 490.78 510.331 490.834 510.289C490.878 510.256 490.911 510.211 490.929 510.159C490.947 510.107 490.95 510.051 490.936 509.998C490.936 509.766 489.918 504.182 486.836 504.531C486.021 504.618 485.789 505.04 485.745 505.36C485.527 506.814 488.857 509.635 490.514 510.333L490.645 510.362ZM487.097 505.127C488.958 505.127 489.889 508.166 490.209 509.489C488.493 508.53 486.225 506.319 486.356 505.447C486.356 505.447 486.356 505.2 486.908 505.142L487.097 505.127Z" fill="#212121"/>
<path d="M495.734 153.297L494.396 154.752L493.146 155.987C492.317 156.802 491.459 157.572 490.602 158.328C488.895 159.86 487.151 161.314 485.367 162.69C481.768 165.551 477.978 168.165 474.026 170.513C472.034 171.691 469.983 172.81 467.904 173.872C465.825 174.933 463.629 175.849 461.419 176.78C456.887 178.588 452.166 179.881 447.344 180.633L446.268 180.793C445.569 180.883 444.865 180.927 444.16 180.924C442.541 180.909 440.939 180.593 439.434 179.993C437.943 179.395 436.577 178.522 435.407 177.42C434.475 176.531 433.663 175.524 432.993 174.424C432.065 172.829 431.365 171.111 430.914 169.321C430.561 167.934 430.304 166.526 430.143 165.104C429.879 162.647 429.806 160.172 429.925 157.703C430.027 155.348 430.216 153.079 430.478 150.855C431.03 146.391 431.815 142.131 432.775 137.769C433.735 133.406 434.825 129.379 436.236 125.162L445.789 127.052C445.44 135.224 445.047 143.599 445.309 151.509C445.356 155.182 445.746 158.843 446.472 162.443C446.615 163.108 446.815 163.76 447.068 164.392C447.272 164.886 447.519 165.191 447.504 165.061C447.42 164.839 447.286 164.64 447.112 164.479C446.716 164.096 446.253 163.79 445.745 163.577C445.222 163.358 444.667 163.225 444.102 163.185C443.84 163.185 443.724 163.185 443.564 163.185H443.724L444.029 163.098C447.474 162.213 450.824 160.995 454.033 159.463C457.391 157.842 460.64 156.006 463.76 153.966C466.915 151.873 470.027 149.604 473.022 147.205C474.476 146.013 476.003 144.762 477.384 143.497L479.507 141.578L480.525 140.633L481.412 139.79L495.734 153.297Z" fill="#FF8B7B"/>
<path d="M503.426 148.165C502.932 134.453 491.678 129.684 477.574 139.034C471.356 142.976 465.37 147.272 459.645 151.902L468.762 181.186C468.762 181.186 486.21 175.646 496.301 164.77C503.092 157.383 503.6 152.832 503.426 148.165Z" fill="#263238"/>
<path opacity="0.2" d="M486.254 154.01C486.254 154.01 477.835 166.049 474.854 178.845C478.993 177.08 482.981 174.979 486.777 172.563L486.254 154.01Z" fill="black"/>
<path d="M445.309 131.4L450.194 120.364L436.366 116.322C436.366 116.322 433.996 121.6 435.349 130.658L445.309 131.4Z" fill="#FF8B7B"/>
<path d="M451.663 107.423L439.638 108.863L436.366 116.322L450.194 120.364L451.663 107.423Z" fill="#FF8B7B"/>
<path d="M486.341 247.562C486.341 247.562 477.413 322.386 476.425 362.429C475.407 404.029 483.564 487.941 483.564 487.941L506.988 487.446C506.988 487.446 509.809 397.617 513.211 356.453C516.905 311.582 526.21 246.747 526.21 246.747L486.341 247.562Z" fill="#212121"/>
<path opacity="0.6" d="M486.341 247.562C486.341 247.562 477.413 322.386 476.425 362.429C475.407 404.029 483.564 487.941 483.564 487.941L506.988 487.446C506.988 487.446 509.809 397.617 513.211 356.453C516.905 311.582 526.21 246.747 526.21 246.747L486.341 247.562Z" fill="white"/>
<path opacity="0.2" d="M514.244 268.747C503.775 291.822 506.581 343.367 512.528 365.468C512.746 362.255 512.979 359.216 513.211 356.41C515.64 326.835 520.482 288.609 523.55 265.97C520.7 261.84 517.515 261.52 514.244 268.747Z" fill="black"/>
<path d="M509.867 488.45L482.328 489.002L480.292 479.856L509.533 479.784L509.867 488.45Z" fill="#212121"/>
<path d="M562.765 509.853L549.795 509.969L546.261 479.958L559.231 479.842L562.765 509.853Z" fill="#FF8B7B"/>
<path d="M549.766 508.471L563.942 508.341C564.203 508.347 564.455 508.434 564.664 508.59C564.872 508.747 565.027 508.964 565.106 509.213L568.537 520.714C568.625 520.982 568.648 521.267 568.603 521.545C568.559 521.823 568.45 522.087 568.283 522.314C568.117 522.541 567.899 522.726 567.647 522.852C567.396 522.979 567.117 523.043 566.836 523.041C561.718 523.041 554.317 522.765 547.934 522.823C540.431 522.823 537.072 523.346 528.275 523.433C522.953 523.433 521.005 518.112 523.259 517.617C533.233 515.305 538.395 515 546.77 509.518C547.645 508.884 548.686 508.52 549.766 508.471Z" fill="#263238"/>
<path opacity="0.2" d="M546.261 479.973L548.079 495.443L561.063 495.327L559.246 479.856L546.261 479.973Z" fill="black"/>
<path d="M544.415 510.783C545.815 510.756 547.208 510.586 548.573 510.274C548.636 510.264 548.694 510.233 548.736 510.185C548.779 510.137 548.803 510.076 548.806 510.013C548.815 509.951 548.805 509.889 548.776 509.834C548.747 509.779 548.702 509.734 548.646 509.707C548.021 509.402 542.568 506.799 541.085 507.715C540.945 507.801 540.83 507.924 540.753 508.07C540.676 508.216 540.64 508.379 540.649 508.544C540.646 508.822 540.706 509.098 540.824 509.349C540.942 509.601 541.116 509.823 541.332 509.998C542.248 510.586 543.329 510.862 544.415 510.783ZM547.526 509.853C544.72 510.347 542.583 510.245 541.71 509.547C541.56 509.428 541.44 509.275 541.359 509.101C541.278 508.927 541.239 508.736 541.245 508.544C541.236 508.485 541.246 508.424 541.272 508.369C541.297 508.315 541.339 508.27 541.39 508.239C542.205 507.744 545.258 508.908 547.526 509.853Z" fill="#212121"/>
<path d="M548.501 510.362C548.545 510.36 548.589 510.349 548.629 510.329C548.67 510.31 548.705 510.282 548.734 510.248C548.763 510.213 548.784 510.174 548.796 510.131C548.809 510.088 548.812 510.042 548.806 509.998C548.806 509.766 547.788 504.182 544.706 504.531C543.891 504.618 543.659 505.04 543.6 505.36C543.397 506.814 546.727 509.635 548.384 510.333L548.501 510.362ZM544.967 505.127C546.814 505.127 547.759 508.166 548.079 509.489C546.363 508.53 544.08 506.319 544.211 505.447C544.211 505.447 544.211 505.2 544.764 505.142L544.967 505.127Z" fill="#212121"/>
<path d="M509.198 247.067C509.198 247.067 515.669 327.577 520.394 367.3C525.294 408.624 541.434 487.897 541.434 487.897L564.858 487.403C564.858 487.403 558.432 397.399 555.945 356.163C553.226 311.161 552.528 246.079 552.528 246.079L509.198 247.067Z" fill="#212121"/>
<path opacity="0.6" d="M509.198 247.067C509.198 247.067 515.669 327.577 520.394 367.3C525.294 408.624 541.434 487.897 541.434 487.897L564.858 487.403C564.858 487.403 558.432 397.399 555.945 356.163C553.226 311.161 552.528 246.079 552.528 246.079L509.198 247.067Z" fill="white"/>
<path d="M567.737 488.45L540.184 489.002L538.162 479.856L567.403 479.784L567.737 488.45Z" fill="#212121"/>
<path d="M484.727 135.442C484.727 135.442 475.145 171.007 486.341 247.562C507.25 247.111 542.365 246.297 552.528 246.108C552.79 235.45 544.924 183.192 554.128 132.81C547.506 131.667 540.809 131.016 534.091 130.862C524.258 130.503 514.412 130.717 504.604 131.502C497.886 132.296 491.24 133.614 484.727 135.442Z" fill="#263238"/>
<path opacity="0.2" d="M550.115 168.667L539.282 159.695C539.995 166.704 546.334 183.876 549.678 192.571C549.62 184.952 549.693 176.911 550.115 168.667Z" fill="black"/>
<path d="M511.365 156.06L499.544 179.455C499.294 179.947 499.207 180.504 499.294 181.048C499.382 181.592 499.64 182.095 500.031 182.483C500.422 182.871 500.927 183.125 501.472 183.208C502.016 183.291 502.573 183.199 503.063 182.945L510.783 178.699C511.203 178.474 511.678 178.37 512.153 178.401C512.629 178.432 513.086 178.596 513.473 178.874L521.078 184.355C521.515 184.673 522.042 184.842 522.582 184.837C523.122 184.831 523.646 184.653 524.077 184.326C524.507 184 524.821 183.544 524.972 183.026C525.124 182.507 525.104 181.954 524.916 181.447L516.032 156.467C515.878 155.992 515.587 155.573 515.196 155.262C514.805 154.951 514.331 154.762 513.833 154.719C513.336 154.675 512.836 154.779 512.397 155.018C511.958 155.256 511.599 155.619 511.365 156.06Z" fill="white"/>
<path d="M530.456 97.6521C528.799 107.19 527.316 124.61 534.091 130.789C534.091 130.789 532.114 139.426 514.069 142.421C501.943 138.525 504.604 131.487 504.604 131.487C515.131 128.725 514.68 120.887 512.688 113.559L530.456 97.6521Z" fill="#FF8B7B"/>
<path opacity="0.2" d="M523.215 104.122L512.688 113.486C513.178 115.194 513.519 116.94 513.706 118.706C517.748 118.037 523.201 113.472 523.535 109.241C523.741 107.529 523.633 105.795 523.215 104.122Z" fill="black"/>
<path d="M536.229 85.9181C532.724 98.3064 531.314 105.736 523.579 110.811C511.946 118.43 497.682 109.357 497.406 96.1399C497.144 84.2751 502.902 65.998 516.309 63.6716C519.253 63.1492 522.282 63.3874 525.109 64.3634C527.936 65.3395 530.467 67.0212 532.462 69.2492C534.457 71.4772 535.85 74.1776 536.509 77.0947C537.168 80.0118 537.072 83.0488 536.229 85.9181Z" fill="#FF8B7B"/>
<path d="M528.77 93.5081C527.141 89.5532 525.963 76.5252 532.754 73.3263C539.544 70.1275 546.596 77.9356 544.807 81.6288C542.059 87.3576 532.55 102.668 528.77 93.5081Z" fill="#263238"/>
<path d="M532.826 77.921C531.154 73.559 511.22 71.0871 508.428 66.3906C505.113 60.8072 518.708 60.1383 528.057 62.9737C536.272 65.4746 541.754 67.8883 540.794 73.9952C540.256 77.4557 532.826 77.921 532.826 77.921Z" fill="#263238"/>
<path d="M537.159 73.4281C537.159 73.4281 541.521 74.6204 543.906 71.4215C543.15 74.5913 539.442 77.7902 537.159 73.4281Z" fill="#263238"/>
<path d="M517.196 59.9784C511.205 55.3255 503.048 60.7926 503.819 66.8559C504.589 72.9192 524.786 77.5284 524.786 77.5284C524.786 77.5284 525.149 66.158 517.196 59.9784Z" fill="#263238"/>
<path d="M503.833 66.885C504.749 71.1307 507.846 74.4604 514.113 76.9323C510.486 74.2502 507.738 70.5506 506.218 66.3034L503.833 66.885Z" fill="#263238"/>
<path d="M516.41 85.2929C516.192 86.3253 515.48 87.0377 514.811 86.8923C514.142 86.7469 513.779 85.7873 513.997 84.7695C514.215 83.7516 514.942 83.0392 515.611 83.1846C516.28 83.33 516.643 84.3333 516.41 85.2929Z" fill="#263238"/>
<path d="M504.865 82.792C504.633 83.8098 503.92 84.5223 503.251 84.3769C502.583 84.2315 502.219 83.2864 502.437 82.2685C502.655 81.2507 503.382 80.5383 504.051 80.6691C504.72 80.8 505.084 81.7742 504.865 82.792Z" fill="#263238"/>
<path d="M508.428 84.1006C506.53 86.9609 504.244 89.5445 501.637 91.7779C503.091 93.8571 506.334 93.7553 506.334 93.7553L508.428 84.1006Z" fill="#FF5652"/>
<path d="M508.69 97.2304C510.055 97.5696 511.482 97.5734 512.849 97.2418C514.216 96.9101 515.483 96.2527 516.541 95.3257C516.57 95.2972 516.593 95.2633 516.609 95.2259C516.625 95.1884 516.633 95.1482 516.633 95.1076C516.633 95.067 516.625 95.0267 516.609 94.9893C516.593 94.9518 516.57 94.9179 516.541 94.8895C516.482 94.8343 516.404 94.8036 516.323 94.8036C516.242 94.8036 516.164 94.8343 516.105 94.8895C515.112 95.725 513.938 96.3167 512.675 96.6172C511.413 96.9176 510.098 96.9185 508.835 96.6198C508.754 96.6024 508.669 96.6179 508.6 96.6629C508.53 96.7079 508.482 96.7787 508.464 96.8597C508.447 96.9406 508.462 97.0252 508.507 97.0947C508.552 97.1643 508.623 97.2131 508.704 97.2304H508.69Z" fill="#263238"/>
<path d="M520.7 82.3267C520.811 82.349 520.927 82.3405 521.034 82.3019C521.141 82.2634 521.235 82.1964 521.307 82.1082C521.379 82.0199 521.425 81.9137 521.441 81.8011C521.457 81.6884 521.442 81.5735 521.398 81.4688C521.005 80.5733 520.404 79.7843 519.646 79.1673C518.887 78.5503 517.992 78.123 517.036 77.921C516.874 77.9001 516.711 77.9431 516.58 78.0409C516.45 78.1387 516.363 78.2835 516.338 78.4444C516.325 78.5237 516.328 78.6046 516.347 78.6826C516.366 78.7605 516.4 78.834 516.447 78.8988C516.495 78.9637 516.554 79.0185 516.623 79.0603C516.691 79.1021 516.767 79.13 516.846 79.1424C517.601 79.3082 518.305 79.6521 518.899 80.1453C519.494 80.6385 519.961 81.2668 520.263 81.9777C520.304 82.0657 520.365 82.1431 520.44 82.2036C520.516 82.2642 520.605 82.3063 520.7 82.3267Z" fill="#263238"/>
<path d="M500.649 77.7174C500.763 77.749 500.884 77.745 500.995 77.7061C501.107 77.6671 501.204 77.595 501.274 77.4993C501.734 76.8817 502.334 76.3809 503.023 76.0374C503.713 75.6939 504.473 75.5173 505.244 75.5219C505.405 75.5373 505.567 75.4877 505.692 75.3841C505.818 75.2805 505.897 75.1313 505.912 74.9693C505.928 74.8074 505.878 74.6459 505.775 74.5205C505.671 74.395 505.522 74.3159 505.36 74.3005C504.384 74.2715 503.416 74.4785 502.538 74.9038C501.659 75.3291 500.897 75.9601 500.314 76.7432C500.263 76.8054 500.224 76.8775 500.202 76.955C500.179 77.0324 500.172 77.1138 500.181 77.194C500.191 77.2742 500.217 77.3517 500.257 77.4217C500.297 77.4917 500.351 77.5527 500.416 77.6011C500.482 77.6594 500.562 77.6995 500.649 77.7174Z" fill="#263238"/>
<path d="M557.297 142.727C559.944 147.351 562.154 151.829 564.451 156.438C566.749 161.047 568.813 165.686 570.776 170.426C572.739 175.166 574.644 179.979 576.302 184.966C578.025 189.94 579.481 195.002 580.664 200.132L581.551 204.101C581.938 205.965 582.104 207.869 582.045 209.772C581.922 213.308 581.137 216.79 579.733 220.037C577.264 225.509 573.753 230.448 569.395 234.577C565.508 238.33 561.272 241.704 556.745 244.654C554.549 246.108 552.281 247.445 549.998 248.725C547.716 250.005 545.447 251.182 542.903 252.302L538.075 243.854C539.835 242.4 541.769 240.946 543.572 239.376C545.375 237.805 547.134 236.206 548.879 234.606C552.248 231.481 555.373 228.103 558.228 224.501C560.767 221.412 562.736 217.897 564.044 214.119C564.494 212.712 564.672 211.231 564.568 209.757C564.525 209.164 564.413 208.579 564.233 208.012L563.244 204.755C560.306 195.721 556.81 186.878 552.776 178.278C550.783 173.916 548.661 169.554 546.538 165.191C544.415 160.829 542.176 156.467 540.009 152.323L557.297 142.727Z" fill="#FF8B7B"/>
<path d="M554.622 132.883C566.749 135.5 575.182 167.14 575.182 167.14L553.502 186.813C546.61 179.144 541.188 170.272 537.508 160.64C531.765 144.806 541.652 130.062 554.622 132.883Z" fill="#263238"/>
<path d="M540.707 242.356L526.763 242.502L535.487 256.562C535.487 256.562 545.418 254.105 546.305 249.118L540.707 242.356Z" fill="#FF8B7B"/>
<path d="M518.082 250.804L525.774 262.087L535.414 256.562L526.763 242.502L518.082 250.804Z" fill="#FF8B7B"/>
<path d="M540.038 97.2595C538.489 100.11 535.876 102.232 532.768 103.163C528.639 104.37 526.53 100.691 527.635 96.7797C528.639 93.261 531.997 88.39 536.127 88.8989C540.256 89.4078 541.885 93.7553 540.038 97.2595Z" fill="#FF8B7B"/>
<path d="M416.452 337.837L400.949 338.962L401.054 340.412L416.557 339.287L416.452 337.837Z" fill="#212121"/>
<path d="M430.382 336.832L422.768 337.385L422.874 338.835L430.487 338.282L430.382 336.832Z" fill="#212121"/>
<path d="M497.276 166.151L240.554 184.661C235.21 185.078 230.247 187.585 226.741 191.638C223.235 195.691 221.469 200.964 221.826 206.311L230.55 327.315C230.963 332.666 233.473 337.637 237.533 341.147C241.593 344.657 246.875 346.422 252.229 346.057L266.77 345.01C267.826 344.934 268.869 345.28 269.671 345.973C270.472 346.665 270.966 347.647 271.044 348.704L272.673 371.125C272.699 371.559 272.855 371.975 273.12 372.32C273.385 372.665 273.747 372.923 274.16 373.06C274.573 373.198 275.017 373.209 275.436 373.092C275.855 372.975 276.23 372.736 276.512 372.404L300.852 344.269C301.875 343.09 303.323 342.364 304.879 342.248L508.908 327.548C514.254 327.134 519.22 324.629 522.73 320.575C526.239 316.521 528.007 311.247 527.65 305.897L518.926 184.893C518.513 179.548 516.007 174.581 511.954 171.072C507.9 167.563 502.625 165.794 497.276 166.151Z" fill="#212121"/>
<path d="M278.053 240.204L291.924 239.201L293.058 254.905L308.209 253.814L307.075 238.111L321.005 237.093L324.247 281.964L310.317 282.967L309.009 264.821L293.858 265.926L295.167 284.072L281.31 285.076L278.053 240.204Z" fill="white"/>
<path opacity="0.2" d="M240.554 184.661C235.21 185.078 230.247 187.585 226.741 191.638C223.235 195.691 221.469 200.964 221.826 206.311L230.55 327.315C230.963 332.666 233.473 337.637 237.533 341.147C241.593 344.657 246.875 346.422 252.229 346.057L254.367 345.897C257.918 345.641 261.285 344.219 263.946 341.853C266.607 339.486 268.412 336.308 269.081 332.811L298.322 180.488L240.554 184.661Z" fill="black"/>
<path d="M367.766 265.592L342.786 267.395C342.977 269.013 343.657 270.534 344.734 271.757C345.352 272.407 346.112 272.905 346.954 273.213C347.797 273.521 348.699 273.629 349.591 273.531C350.815 273.443 351.997 273.043 353.022 272.367C353.825 271.76 354.51 271.011 355.043 270.157L367.402 270.404C366.058 273.452 363.874 276.054 361.106 277.907C358.567 279.516 354.815 280.486 349.852 280.815C346.382 281.219 342.866 280.847 339.558 279.725C336.906 278.611 334.629 276.759 333 274.388C331.132 271.69 330.059 268.521 329.903 265.243C329.644 262.966 329.864 260.66 330.55 258.474C331.236 256.287 332.373 254.269 333.887 252.549C336.912 249.176 341.274 247.281 346.973 246.864C350.747 246.415 354.573 246.864 358.14 248.172C360.872 249.339 363.173 251.326 364.727 253.858C366.506 257.002 367.503 260.527 367.635 264.138L367.766 265.592ZM354.68 260.532C354.503 258.641 353.687 256.866 352.368 255.501C351.703 254.989 350.94 254.62 350.127 254.415C349.314 254.211 348.467 254.175 347.639 254.312C346.812 254.448 346.021 254.753 345.316 255.208C344.611 255.662 344.007 256.257 343.542 256.955C342.766 258.323 342.374 259.875 342.408 261.448L354.68 260.532Z" fill="white"/>
<path d="M371.619 233.443L384.109 232.542L387.352 277.398L374.862 278.3L371.619 233.443Z" fill="white"/>
<path d="M392.484 231.931L404.974 231.03L408.217 275.886L395.741 276.788L392.484 231.931Z" fill="white"/>
<path d="M413.48 259.267C413.244 256.991 413.49 254.691 414.202 252.517C414.913 250.342 416.074 248.342 417.61 246.646C420.721 243.185 425.127 241.246 430.827 240.83C437.321 240.364 442.372 241.896 445.978 245.424C448.973 248.583 450.703 252.732 450.84 257.083C450.977 261.433 449.51 265.683 446.719 269.023C443.637 272.455 439.168 274.393 433.313 274.839C428.765 275.385 424.17 274.303 420.343 271.786C418.308 270.373 416.629 268.507 415.438 266.334C414.247 264.162 413.577 261.742 413.48 259.267ZM425.97 258.336C425.947 260.631 426.735 262.861 428.195 264.632C428.784 265.235 429.497 265.703 430.285 266.003C431.072 266.303 431.916 266.428 432.756 266.37C433.597 266.312 434.416 266.072 435.154 265.666C435.893 265.261 436.535 264.7 437.036 264.021C438.211 261.997 438.652 259.63 438.286 257.318C438.3 255.069 437.523 252.887 436.09 251.153C435.53 250.539 434.836 250.062 434.062 249.759C433.288 249.457 432.455 249.337 431.627 249.408C430.763 249.449 429.92 249.687 429.164 250.106C428.407 250.524 427.757 251.112 427.265 251.822C426.093 253.778 425.655 256.087 426.029 258.336H425.97Z" fill="white"/>
<path d="M454.775 227.424L468.079 226.464L468.82 236.642L467.73 257.362L459.5 257.958L455.502 237.602L454.775 227.424ZM457.683 261.273L470.1 260.372L470.9 271.364L458.468 272.251L457.683 261.273Z" fill="white"/>
<path d="M237.005 144.821C236.94 146.949 237.052 149.079 237.34 151.189C224.164 155.589 210.113 156.702 196.409 154.432C197.067 151.945 197.467 149.396 197.601 146.827C197.143 149.414 196.243 151.903 194.941 154.184C192.352 153.69 190.898 153.268 190.898 153.268C190.898 153.268 193.545 138.961 188.776 128.55C184.006 118.139 186.391 112.323 189.997 110.68C196.685 90.1203 221.826 93.3627 230.332 101.709C241.12 112.294 241.179 142.116 243.098 148.935C241.513 149.619 239.957 150.244 238.401 150.797C237.622 148.891 237.151 146.874 237.005 144.821Z" fill="#263238"/>
<path d="M247.401 176.824L248.71 180.968C249.19 182.422 249.67 183.876 250.164 185.257C251.138 188.165 252.156 191.073 253.247 193.865C254.337 196.656 255.384 199.594 256.518 202.443L258.205 206.806L258.627 207.882L258.728 208.129C258.549 207.971 258.342 207.848 258.118 207.765C257.798 207.649 257.667 207.765 257.87 207.765C258.221 207.764 258.569 207.71 258.903 207.605C260.04 207.245 261.132 206.757 262.16 206.151C264.639 204.706 267.011 203.083 269.255 201.295C271.611 199.463 273.923 197.5 276.191 195.479C278.459 193.458 280.742 191.349 282.938 189.285L287.402 193.065C285.54 195.74 283.578 198.183 281.586 200.67C279.594 203.156 277.354 205.482 275.057 207.794C272.692 210.208 270.118 212.407 267.365 214.366C265.79 215.47 264.098 216.396 262.32 217.129C261.191 217.582 260.008 217.885 258.801 218.031C257.162 218.235 255.499 218.009 253.974 217.376C252.311 216.668 250.895 215.484 249.902 213.974C249.684 213.639 249.481 213.305 249.321 213L248.928 212.214L248.405 211.153C247.721 209.699 246.951 208.245 246.355 206.878C245.031 203.97 243.708 201.062 242.501 198.154C241.295 195.246 240.117 192.251 238.997 189.256C238.474 187.801 237.95 186.217 237.456 184.69C236.962 183.163 236.482 181.666 236.002 179.877L247.401 176.824Z" fill="#FFC3BD"/>
<path d="M243.956 163.912C248.972 165.191 252.476 185.809 252.476 185.809L238.663 195.202C238.663 195.202 225.431 174.395 229.285 168.885C233.298 163.156 236.642 162.051 243.956 163.912Z" fill="#212121"/>
<path d="M243.956 163.912C248.972 165.191 252.476 185.809 252.476 185.809L238.663 195.202C238.663 195.202 225.431 174.395 229.285 168.885C233.298 163.156 236.642 162.051 243.956 163.912Z" fill="#212121"/>
<path opacity="0.4" d="M243.956 163.912C248.972 165.191 252.476 185.809 252.476 185.809L238.663 195.202C238.663 195.202 225.431 174.395 229.285 168.885C233.298 163.156 236.642 162.051 243.956 163.912Z" fill="white"/>
<path opacity="0.3" d="M243.505 168.521L247.358 189.299L239.594 194.563L243.505 168.521Z" fill="black"/>
<path d="M282.705 189.779L287.315 178.67L293 189.779C293 189.779 289.307 195.304 284.436 193.952L282.705 189.779Z" fill="#FFC3BD"/>
<path d="M292.389 177.521L299.688 180.459L293 189.779L287.3 178.67L292.389 177.521Z" fill="#FFC3BD"/>
<path d="M216.838 511.016H229.008L229.823 482.852H217.652L216.838 511.016Z" fill="#FFC3BD"/>
<path d="M135.238 474.738L146.42 479.507L161.062 455.138L149.866 450.369L135.238 474.738Z" fill="#FFC3BD"/>
<path d="M148.572 477.85L136.94 470.696C136.741 470.568 136.502 470.518 136.268 470.556C136.035 470.593 135.823 470.716 135.675 470.899L128.681 479.289C128.507 479.509 128.382 479.763 128.314 480.035C128.247 480.307 128.238 480.59 128.289 480.865C128.34 481.141 128.449 481.402 128.61 481.632C128.77 481.862 128.978 482.054 129.219 482.197C133.319 484.625 135.413 485.585 140.531 488.726C143.686 490.674 148.078 493.815 152.425 496.49C156.773 499.166 159.695 495.036 158.081 493.51C151.029 486.777 151.233 483.579 149.91 479.595C149.69 478.87 149.214 478.25 148.572 477.85Z" fill="#263238"/>
<path d="M229.415 509.606H215.762C215.527 509.603 215.299 509.685 215.12 509.838C214.941 509.99 214.823 510.202 214.788 510.434L213.232 521.252C213.194 521.53 213.217 521.812 213.299 522.08C213.381 522.348 213.52 522.595 213.707 522.803C213.893 523.012 214.123 523.178 214.38 523.289C214.637 523.401 214.915 523.455 215.195 523.448C219.964 523.375 222.262 523.084 228.281 523.084C231.975 523.084 239.623 523.477 244.726 523.477C249.83 523.477 250.092 518.431 247.969 517.966C238.445 515.916 234.694 513.095 231.48 510.405C230.911 509.898 230.178 509.614 229.415 509.606Z" fill="#263238"/>
<path opacity="0.2" d="M229.808 482.866L229.401 497.377H217.231L217.652 482.866H229.808Z" fill="black"/>
<path opacity="0.2" d="M149.866 450.383L161.047 455.138L153.501 467.701L142.32 462.932L149.866 450.383Z" fill="black"/>
<path d="M243.956 163.912C243.956 163.912 249.772 165.947 238.14 237.296H188.703C189.532 217.202 189.561 204.814 179.979 163.563C186.891 162.134 193.899 161.211 200.946 160.8C208.415 160.262 215.913 160.262 223.381 160.8C233.036 161.673 243.956 163.912 243.956 163.912Z" fill="#212121"/>
<path opacity="0.4" d="M243.956 163.912C243.956 163.912 249.772 165.947 238.14 237.296H188.703C189.532 217.202 189.561 204.814 179.979 163.563C186.891 162.134 193.899 161.211 200.946 160.8C208.415 160.262 215.913 160.262 223.381 160.8C233.036 161.673 243.956 163.912 243.956 163.912Z" fill="white"/>
<path d="M200.975 160.786C208.444 160.261 215.941 160.261 223.41 160.786C224.617 160.902 225.853 161.033 227.074 161.178C227.583 161.942 227.909 162.813 228.027 163.723C228.146 164.633 228.054 165.559 227.758 166.427C226.173 170.339 220.488 170.789 216.358 170.789C201.077 170.789 198.488 161.862 198.387 161.484L198.241 160.946L200.975 160.786Z" fill="white"/>
<path d="M203.199 135.544C204.653 142.814 206.035 155.987 200.975 160.8C200.975 160.8 202.952 168.07 216.358 168.07C231.102 168.07 223.41 160.8 223.41 160.8C215.355 158.881 215.573 152.905 216.969 147.307L203.199 135.544Z" fill="#FFC3BD"/>
<path d="M204.668 130.411C202.938 136.126 205.337 149.648 208.899 154.882C201.876 150.855 199.506 138.583 199.506 138.583L204.668 130.411Z" fill="#263238"/>
<path opacity="0.2" d="M208.812 140.342L216.969 147.292C216.611 148.595 216.377 149.929 216.271 151.276C213.203 150.826 209.001 147.452 208.652 144.239C208.471 142.941 208.526 141.621 208.812 140.342Z" fill="black"/>
<path d="M196.54 122.661C199.361 134.395 200.291 139.426 207.358 144.472C217.987 152.047 231.786 146.027 232.527 133.683C233.196 122.574 228.485 105.257 216.053 102.581C213.314 101.976 210.466 102.082 207.779 102.887C205.092 103.692 202.655 105.171 200.7 107.183C198.745 109.195 197.337 111.673 196.609 114.382C195.881 117.091 195.857 119.941 196.54 122.661Z" fill="#FFC3BD"/>
<path d="M238.154 237.296C238.154 237.296 247.736 330.964 246.878 368.042C246.049 406.603 231.916 494.542 231.916 494.542H215.486C215.486 494.542 218.089 408.827 216.634 370.95C215.05 329.656 201.934 237.267 201.934 237.267L238.154 237.296Z" fill="#212121"/>
<path opacity="0.4" d="M238.154 237.296C238.154 237.296 247.736 330.964 246.878 368.042C246.049 406.603 231.916 494.542 231.916 494.542H215.486C215.486 494.542 218.089 408.827 216.634 370.95C215.05 329.656 201.934 237.267 201.934 237.267L238.154 237.296Z" fill="black"/>
<path d="M214.119 495.153H233.399L234.824 489.002L213.218 488.246L214.119 495.153Z" fill="#212121"/>
<path opacity="0.2" d="M216.853 260.604C228.979 285.003 219.281 329.51 214.992 346.072C212.796 321.208 209.088 290.819 206.195 268.471C208.027 255.908 211.255 249.35 216.853 260.604Z" fill="black"/>
<path d="M225.111 237.296C225.111 237.296 213.915 334.716 205.468 365.934C195.449 403.055 157.31 466.261 157.31 466.261L142.058 459.776C142.058 459.776 165.656 388.006 173.334 368.449C189.691 326.719 175.689 264.53 188.761 237.296H225.111Z" fill="#212121"/>
<path opacity="0.4" d="M225.111 237.296C225.111 237.296 213.915 334.716 205.468 365.934C195.449 403.055 157.31 466.261 157.31 466.261L142.058 459.776C142.058 459.776 165.656 388.006 173.334 368.449C189.691 326.719 175.689 264.53 188.761 237.296H225.111Z" fill="black"/>
<path d="M139.949 459.82L158.881 467.875L163.432 462.786L141.592 452.303L139.949 459.82Z" fill="#212121"/>
<path d="M215.195 122.821C215.37 123.781 216.009 124.479 216.649 124.363C217.289 124.246 217.653 123.374 217.478 122.414C217.304 121.454 216.664 120.757 216.024 120.858C215.384 120.96 214.948 121.847 215.195 122.821Z" fill="#263238"/>
<path d="M226.042 120.902C226.202 121.862 226.857 122.56 227.496 122.443C228.136 122.327 228.514 121.454 228.34 120.495C228.165 119.535 227.525 118.837 226.886 118.939C226.246 119.041 225.868 119.928 226.042 120.902Z" fill="#263238"/>
<path d="M226.609 119.055L228.805 117.965C228.805 117.965 227.932 119.986 226.609 119.055Z" fill="#263238"/>
<path d="M223.439 123.068C224.688 125.121 226.214 126.99 227.976 128.623C227.544 129.06 227.023 129.398 226.448 129.613C225.874 129.829 225.259 129.918 224.646 129.873L223.439 123.068Z" fill="#ED847E"/>
<path d="M220.27 134.424C220.821 134.423 221.37 134.375 221.913 134.279C221.954 134.277 221.995 134.267 222.032 134.248C222.069 134.229 222.102 134.203 222.128 134.17C222.154 134.138 222.173 134.1 222.183 134.06C222.193 134.02 222.195 133.978 222.187 133.937C222.18 133.896 222.164 133.857 222.14 133.823C222.117 133.789 222.086 133.76 222.05 133.739C222.015 133.717 221.975 133.704 221.934 133.699C221.892 133.695 221.851 133.699 221.811 133.712C220.614 133.95 219.377 133.902 218.202 133.571C217.027 133.24 215.947 132.636 215.05 131.807C214.995 131.754 214.922 131.724 214.846 131.724C214.77 131.724 214.697 131.754 214.643 131.807C214.614 131.833 214.592 131.864 214.577 131.899C214.561 131.935 214.553 131.972 214.553 132.011C214.553 132.049 214.561 132.087 214.577 132.122C214.592 132.157 214.614 132.188 214.643 132.214C216.16 133.654 218.178 134.446 220.27 134.424Z" fill="#263238"/>
<path d="M200.655 115.784C200.973 118.876 201.458 121.948 202.109 124.988C202.109 124.988 209.379 115.784 210.586 110.855C210.297 112.795 209.734 114.685 208.914 116.467C208.914 116.467 218.699 114.33 219.659 107.874C219.642 110.764 219.321 113.645 218.699 116.467C218.699 116.467 228.034 112.803 227.176 106.609C226.318 100.415 211.982 98.0156 205.366 100.109C198.75 102.203 192.28 108.994 194.228 118.328C196.176 127.663 199.913 131.167 199.913 131.167C199.913 131.167 197.223 121.76 200.655 115.784Z" fill="#263238"/>
<path d="M196.031 131.502C196.928 133.656 198.644 135.365 200.8 136.256C203.708 137.42 205.438 134.933 204.93 132.054C204.479 129.452 202.429 125.729 199.419 125.787C198.76 125.817 198.119 126.009 197.554 126.348C196.988 126.687 196.516 127.162 196.18 127.729C195.844 128.296 195.654 128.938 195.628 129.596C195.602 130.255 195.741 130.91 196.031 131.502Z" fill="#FFC3BD"/>
<path d="M202.414 111.305C200.96 117.121 203.985 130.498 207.794 135.544C200.524 131.865 197.616 119.71 197.616 119.71L202.414 111.305Z" fill="#263238"/>
<path d="M211.211 119.506C211.286 119.483 211.355 119.446 211.415 119.396C211.475 119.346 211.524 119.285 211.56 119.215C211.867 118.559 212.324 117.985 212.895 117.541C213.467 117.096 214.135 116.793 214.846 116.656C214.997 116.634 215.133 116.556 215.228 116.437C215.322 116.318 215.368 116.168 215.355 116.016C215.348 115.94 215.326 115.867 215.289 115.8C215.253 115.732 215.203 115.673 215.144 115.626C215.084 115.578 215.015 115.543 214.942 115.523C214.868 115.503 214.791 115.497 214.715 115.508C213.813 115.664 212.962 116.035 212.233 116.589C211.505 117.143 210.92 117.864 210.528 118.692C210.478 118.793 210.459 118.906 210.473 119.018C210.487 119.13 210.533 119.235 210.605 119.321C210.677 119.407 210.773 119.471 210.881 119.503C210.988 119.536 211.103 119.537 211.211 119.506Z" fill="#263238"/>
<path d="M230.011 114.999C230.084 115.002 230.157 114.989 230.225 114.961C230.293 114.934 230.354 114.892 230.404 114.839C230.511 114.73 230.57 114.584 230.57 114.432C230.57 114.279 230.511 114.133 230.404 114.024C229.784 113.353 229.015 112.838 228.158 112.519C227.302 112.201 226.383 112.089 225.475 112.192C225.399 112.206 225.327 112.235 225.263 112.277C225.198 112.319 225.143 112.373 225.1 112.437C225.056 112.501 225.026 112.572 225.011 112.647C224.995 112.723 224.995 112.8 225.01 112.876C225.041 113.023 225.128 113.152 225.253 113.236C225.378 113.32 225.53 113.352 225.678 113.326C226.394 113.246 227.119 113.336 227.793 113.589C228.468 113.842 229.073 114.25 229.561 114.78C229.615 114.848 229.683 114.903 229.761 114.941C229.839 114.978 229.925 114.998 230.011 114.999Z" fill="#263238"/>
<path d="M186.013 180.822C183.992 187.205 182.058 193.908 180.415 200.51C178.761 207.026 177.552 213.648 176.794 220.328L176.678 221.549C176.678 221.942 176.678 222.029 176.678 222.378C176.694 223.064 176.748 223.748 176.838 224.428C177.023 226.021 177.29 227.603 177.638 229.168C178.321 232.411 179.092 235.755 180.081 239.07C181.069 242.385 181.913 245.759 182.901 249.103L185.809 259.136L180.415 261.36C177.1 255.021 174.221 248.565 171.531 241.906C170.237 238.561 168.972 235.188 167.925 231.626C167.401 229.852 166.907 228.034 166.471 226.057C166.264 225.01 166.118 223.951 166.035 222.887C166.035 222.349 166.035 221.549 166.035 221.069V219.615C166.158 215.91 166.498 212.216 167.052 208.55C167.532 204.915 168.245 201.368 169.015 197.834C170.528 190.758 172.471 183.78 174.831 176.94L186.013 180.822Z" fill="#FFC3BD"/>
<path d="M180.008 163.563C175.064 165.017 169.117 182.102 169.117 182.102L188.31 195.828C188.31 195.828 195.318 181.607 193.239 175.21C191.073 168.55 185.664 161.847 180.008 163.563Z" fill="#212121"/>
<path opacity="0.4" d="M180.008 163.563C175.064 165.017 169.117 182.102 169.117 182.102L188.31 195.828C188.31 195.828 195.318 181.607 193.239 175.21C191.073 168.55 185.664 161.847 180.008 163.563Z" fill="white"/>
<path d="M153.486 482.473C153.723 482.39 153.938 482.256 154.116 482.08C154.295 481.904 154.432 481.691 154.519 481.456C154.603 481.304 154.647 481.134 154.647 480.961C154.647 480.788 154.603 480.618 154.519 480.467C153.646 479.187 149.241 479.289 148.703 479.304C148.647 479.305 148.593 479.322 148.546 479.353C148.5 479.383 148.463 479.427 148.441 479.478C148.413 479.524 148.398 479.577 148.398 479.631C148.398 479.685 148.413 479.738 148.441 479.784C149.59 480.932 151.742 482.808 153.254 482.517L153.486 482.473ZM149.401 479.827C151.16 479.827 153.516 480.074 153.981 480.758C154.021 480.824 154.042 480.899 154.042 480.976C154.042 481.053 154.021 481.128 153.981 481.194C153.917 481.369 153.81 481.526 153.67 481.651C153.531 481.775 153.363 481.863 153.181 481.906C152.381 482.11 150.986 481.281 149.401 479.827Z" fill="#212121"/>
<path d="M150.695 479.522C152.032 479.1 153.457 478.359 153.763 477.53C153.838 477.314 153.84 477.079 153.766 476.863C153.692 476.647 153.547 476.462 153.356 476.338C153.186 476.196 152.987 476.095 152.773 476.042C152.559 475.99 152.335 475.986 152.12 476.032C150.389 476.338 148.528 479.304 148.455 479.435C148.43 479.479 148.417 479.529 148.417 479.58C148.417 479.631 148.43 479.681 148.455 479.725C148.482 479.768 148.518 479.804 148.561 479.829C148.604 479.854 148.653 479.869 148.703 479.871C149.38 479.852 150.051 479.734 150.695 479.522ZM152.032 476.614H152.221C152.358 476.585 152.499 476.588 152.635 476.62C152.771 476.653 152.898 476.715 153.007 476.803C153.297 477.036 153.268 477.21 153.225 477.341C152.934 478.141 150.724 479.1 149.255 479.289C149.923 478.171 150.883 477.256 152.032 476.643V476.614Z" fill="#212121"/>
<path d="M233.981 511.728C235.006 511.813 236.029 511.552 236.889 510.987C237.089 510.806 237.241 510.579 237.332 510.325C237.423 510.072 237.451 509.8 237.412 509.533C237.401 509.375 237.35 509.223 237.263 509.091C237.177 508.959 237.058 508.85 236.918 508.777C235.464 507.963 230.593 510.434 230.04 510.711C229.987 510.733 229.941 510.77 229.909 510.818C229.877 510.866 229.86 510.922 229.86 510.98C229.86 511.037 229.877 511.094 229.909 511.142C229.941 511.189 229.987 511.227 230.04 511.249C231.334 511.541 232.655 511.702 233.981 511.728ZM236.147 509.213C236.332 509.201 236.517 509.236 236.685 509.315C236.743 509.346 236.79 509.392 236.824 509.449C236.857 509.505 236.874 509.569 236.874 509.635C236.901 509.802 236.886 509.973 236.831 510.133C236.775 510.293 236.68 510.437 236.554 510.551C235.813 511.22 233.806 511.336 231.116 510.885C232.687 510.047 234.388 509.481 236.147 509.213Z" fill="#212121"/>
<path d="M230.215 511.307H230.332C231.786 510.652 234.694 508.035 234.432 506.654C234.432 506.319 234.141 505.927 233.341 505.84C233.055 505.808 232.765 505.835 232.49 505.92C232.215 506.005 231.96 506.146 231.742 506.334C230.288 507.614 229.939 510.885 229.925 511.016C229.923 511.067 229.934 511.118 229.957 511.164C229.979 511.209 230.013 511.249 230.055 511.278C230.103 511.308 230.16 511.318 230.215 511.307ZM233.123 506.378H233.298C233.821 506.378 233.865 506.654 233.865 506.712C234.01 507.541 232.062 509.62 230.579 510.507C230.695 509.125 231.239 507.814 232.135 506.756C232.401 506.513 232.748 506.379 233.109 506.378H233.123Z" fill="#212121"/>
<path d="M188.019 234.403L186.769 238.765C186.594 239.099 187.001 239.448 187.569 239.448H238.459C238.91 239.448 239.274 239.23 239.303 238.954L239.753 234.592C239.753 234.287 239.39 234.025 238.91 234.025H188.834C188.677 234.013 188.52 234.041 188.377 234.107C188.234 234.173 188.111 234.275 188.019 234.403Z" fill="#263238"/>
<path d="M194.737 239.986H193.385C193.123 239.986 192.919 239.855 192.934 239.681L193.559 233.865C193.559 233.705 193.821 233.56 194.083 233.56H195.42C195.696 233.56 195.886 233.705 195.871 233.865L195.246 239.681C195.246 239.914 195.013 239.986 194.737 239.986Z" fill="#212121"/>
<path opacity="0.4" d="M194.737 239.986H193.385C193.123 239.986 192.919 239.855 192.934 239.681L193.559 233.865C193.559 233.705 193.821 233.56 194.083 233.56H195.42C195.696 233.56 195.886 233.705 195.871 233.865L195.246 239.681C195.246 239.914 195.013 239.986 194.737 239.986Z" fill="black"/>
<path d="M234.621 239.986H233.283C233.022 239.986 232.818 239.855 232.833 239.681L233.472 233.865C233.472 233.705 233.719 233.56 233.981 233.56H235.319C235.595 233.56 235.799 233.705 235.77 233.865L235.144 239.681C235.13 239.914 234.897 239.986 234.621 239.986Z" fill="#212121"/>
<path opacity="0.4" d="M234.621 239.986H233.283C233.022 239.986 232.818 239.855 232.833 239.681L233.472 233.865C233.472 233.705 233.719 233.56 233.981 233.56H235.319C235.595 233.56 235.799 233.705 235.77 233.865L235.144 239.681C235.13 239.914 234.897 239.986 234.621 239.986Z" fill="black"/>
<path d="M214.686 239.986H213.349C213.072 239.986 212.869 239.855 212.898 239.681L213.523 233.865C213.523 233.705 213.77 233.56 214.046 233.56H215.384C215.646 233.56 215.849 233.705 215.835 233.865L215.21 239.681C215.195 239.914 214.948 239.986 214.686 239.986Z" fill="#212121"/>
<path opacity="0.4" d="M214.686 239.986H213.349C213.072 239.986 212.869 239.855 212.898 239.681L213.523 233.865C213.523 233.705 213.77 233.56 214.046 233.56H215.384C215.646 233.56 215.849 233.705 215.835 233.865L215.21 239.681C215.195 239.914 214.948 239.986 214.686 239.986Z" fill="black"/>
<path d="M215.689 120.96L217.885 119.884C217.885 119.884 217.012 121.905 215.689 120.96Z" fill="#263238"/>
<path d="M185.402 257.493L195.827 265.49L183.745 268.151C183.745 268.151 178.612 262.335 180.386 257.536L185.402 257.493Z" fill="#FFC3BD"/>
<path d="M198.387 275.392L188.15 277.064L182.567 266.566L195.828 265.49L198.387 275.392Z" fill="#FFC3BD"/>
</svg>
