<svg width="500" height="150" viewBox="0 0 500 150" fill="none" xmlns="http://www.w3.org/2000/svg">
<rect width="500" height="150" fill="#0D0041"/>
<path d="M61.1758 61.4062L67.75 79.9688L74.2891 61.4062H81.2148V87H75.9238V80.0039L76.4512 67.9277L69.543 87H65.9219L59.0312 67.9453L59.5586 80.0039V87H54.2852V61.4062H61.1758ZM84.6953 77.3145C84.6953 75.4277 85.0586 73.7461 85.7852 72.2695C86.5117 70.793 87.5547 69.6504 88.9141 68.8418C90.2852 68.0332 91.873 67.6289 93.6777 67.6289C96.2441 67.6289 98.3359 68.4141 99.9531 69.9844C101.582 71.5547 102.49 73.6875 102.678 76.3828L102.713 77.6836C102.713 80.6016 101.898 82.9453 100.27 84.7148C98.6406 86.4727 96.4551 87.3516 93.7129 87.3516C90.9707 87.3516 88.7793 86.4727 87.1387 84.7148C85.5098 82.957 84.6953 80.5664 84.6953 77.543V77.3145ZM89.7754 77.6836C89.7754 79.4883 90.1152 80.8711 90.7949 81.832C91.4746 82.7812 92.4473 83.2559 93.7129 83.2559C94.9434 83.2559 95.9043 82.7871 96.5957 81.8496C97.2871 80.9004 97.6328 79.3887 97.6328 77.3145C97.6328 75.5449 97.2871 74.1738 96.5957 73.2012C95.9043 72.2285 94.9316 71.7422 93.6777 71.7422C92.4355 71.7422 91.4746 72.2285 90.7949 73.2012C90.1152 74.1621 89.7754 75.6562 89.7754 77.6836ZM116.529 72.7441C115.838 72.6504 115.229 72.6035 114.701 72.6035C112.779 72.6035 111.52 73.2539 110.922 74.5547V87H105.842V67.9805H110.641L110.781 70.248C111.801 68.502 113.213 67.6289 115.018 67.6289C115.58 67.6289 116.107 67.7051 116.6 67.8574L116.529 72.7441ZM127.393 87.3516C124.604 87.3516 122.33 86.4961 120.572 84.7852C118.826 83.0742 117.953 80.7949 117.953 77.9473V77.4551C117.953 75.5449 118.322 73.8398 119.061 72.3398C119.799 70.8281 120.842 69.668 122.189 68.8594C123.549 68.0391 125.096 67.6289 126.83 67.6289C129.432 67.6289 131.477 68.4492 132.965 70.0898C134.465 71.7305 135.215 74.0566 135.215 77.0684V79.1426H123.104C123.268 80.3848 123.76 81.3809 124.58 82.1309C125.412 82.8809 126.461 83.2559 127.727 83.2559C129.684 83.2559 131.213 82.5469 132.314 81.1289L134.811 83.9238C134.049 85.002 133.018 85.8457 131.717 86.4551C130.416 87.0527 128.975 87.3516 127.393 87.3516ZM126.812 71.7422C125.805 71.7422 124.984 72.082 124.352 72.7617C123.73 73.4414 123.332 74.4141 123.156 75.6797H130.223V75.2754C130.199 74.1504 129.895 73.2832 129.309 72.6738C128.723 72.0527 127.891 71.7422 126.812 71.7422ZM167.506 78.4746C167.307 81.2285 166.287 83.3965 164.447 84.9785C162.619 86.5605 160.205 87.3516 157.205 87.3516C153.924 87.3516 151.34 86.25 149.453 84.0469C147.578 81.832 146.641 78.7969 146.641 74.9414V73.377C146.641 70.916 147.074 68.748 147.941 66.873C148.809 64.998 150.045 63.5625 151.65 62.5664C153.268 61.5586 155.143 61.0547 157.275 61.0547C160.229 61.0547 162.607 61.8457 164.412 63.4277C166.217 65.0098 167.26 67.2305 167.541 70.0898H162.268C162.139 68.4375 161.676 67.2422 160.879 66.5039C160.094 65.7539 158.893 65.3789 157.275 65.3789C155.518 65.3789 154.199 66.0117 153.32 67.2773C152.453 68.5312 152.008 70.4824 151.984 73.1309V75.0645C151.984 77.8301 152.4 79.8516 153.232 81.1289C154.076 82.4062 155.4 83.0449 157.205 83.0449C158.834 83.0449 160.047 82.6758 160.844 81.9375C161.652 81.1875 162.115 80.0332 162.232 78.4746H167.506ZM169.844 77.3145C169.844 75.4277 170.207 73.7461 170.934 72.2695C171.66 70.793 172.703 69.6504 174.062 68.8418C175.434 68.0332 177.021 67.6289 178.826 67.6289C181.393 67.6289 183.484 68.4141 185.102 69.9844C186.73 71.5547 187.639 73.6875 187.826 76.3828L187.861 77.6836C187.861 80.6016 187.047 82.9453 185.418 84.7148C183.789 86.4727 181.604 87.3516 178.861 87.3516C176.119 87.3516 173.928 86.4727 172.287 84.7148C170.658 82.957 169.844 80.5664 169.844 77.543V77.3145ZM174.924 77.6836C174.924 79.4883 175.264 80.8711 175.943 81.832C176.623 82.7812 177.596 83.2559 178.861 83.2559C180.092 83.2559 181.053 82.7871 181.744 81.8496C182.436 80.9004 182.781 79.3887 182.781 77.3145C182.781 75.5449 182.436 74.1738 181.744 73.2012C181.053 72.2285 180.08 71.7422 178.826 71.7422C177.584 71.7422 176.623 72.2285 175.943 73.2012C175.264 74.1621 174.924 75.6562 174.924 77.6836ZM195.754 67.9805L195.912 70.1074C197.26 68.4551 199.082 67.6289 201.379 67.6289C203.828 67.6289 205.51 68.5957 206.424 70.5293C207.76 68.5957 209.664 67.6289 212.137 67.6289C214.199 67.6289 215.734 68.2324 216.742 69.4395C217.75 70.6348 218.254 72.4395 218.254 74.8535V87H213.156V74.8711C213.156 73.793 212.945 73.0078 212.523 72.5156C212.102 72.0117 211.357 71.7598 210.291 71.7598C208.768 71.7598 207.713 72.4863 207.127 73.9395L207.145 87H202.064V74.8887C202.064 73.7871 201.848 72.9902 201.414 72.498C200.98 72.0059 200.242 71.7598 199.199 71.7598C197.758 71.7598 196.715 72.3574 196.07 73.5527V87H190.99V67.9805H195.754ZM227.535 87H222.438V67.9805H227.535V87ZM222.139 63.0586C222.139 62.2969 222.391 61.6699 222.895 61.1777C223.41 60.6855 224.107 60.4395 224.986 60.4395C225.854 60.4395 226.545 60.6855 227.061 61.1777C227.576 61.6699 227.834 62.2969 227.834 63.0586C227.834 63.832 227.57 64.4648 227.043 64.957C226.527 65.4492 225.842 65.6953 224.986 65.6953C224.131 65.6953 223.439 65.4492 222.912 64.957C222.396 64.4648 222.139 63.832 222.139 63.0586ZM236.412 67.9805L236.57 70.1777C237.93 68.4785 239.752 67.6289 242.037 67.6289C244.053 67.6289 245.553 68.2207 246.537 69.4043C247.521 70.5879 248.025 72.3574 248.049 74.7129V87H242.969V74.8359C242.969 73.7578 242.734 72.9785 242.266 72.498C241.797 72.0059 241.018 71.7598 239.928 71.7598C238.498 71.7598 237.426 72.3691 236.711 73.5879V87H231.631V67.9805H236.412ZM251.178 77.3496C251.178 74.4316 251.869 72.082 253.252 70.3008C254.646 68.5195 256.521 67.6289 258.877 67.6289C260.963 67.6289 262.586 68.3438 263.746 69.7734L263.957 67.9805H268.562V86.3672C268.562 88.0312 268.182 89.4785 267.42 90.709C266.67 91.9395 265.609 92.877 264.238 93.5215C262.867 94.166 261.262 94.4883 259.422 94.4883C258.027 94.4883 256.668 94.207 255.344 93.6445C254.02 93.0938 253.018 92.3789 252.338 91.5L254.588 88.4062C255.854 89.8242 257.389 90.5332 259.193 90.5332C260.541 90.5332 261.59 90.1699 262.34 89.4434C263.09 88.7285 263.465 87.709 263.465 86.3848V85.3652C262.293 86.6895 260.752 87.3516 258.842 87.3516C256.557 87.3516 254.705 86.4609 253.287 84.6797C251.881 82.8867 251.178 80.5137 251.178 77.5605V77.3496ZM256.258 77.7188C256.258 79.4414 256.604 80.7949 257.295 81.7793C257.986 82.752 258.936 83.2383 260.143 83.2383C261.689 83.2383 262.797 82.6582 263.465 81.498V73.5C262.785 72.3398 261.689 71.7598 260.178 71.7598C258.959 71.7598 257.998 72.2578 257.295 73.2539C256.604 74.25 256.258 75.7383 256.258 77.7188ZM295.053 80.2852C295.053 79.2891 294.701 78.5273 293.998 78C293.295 77.4609 292.029 76.8984 290.201 76.3125C288.373 75.7148 286.926 75.1289 285.859 74.5547C282.953 72.9844 281.5 70.8691 281.5 68.209C281.5 66.8262 281.887 65.5957 282.66 64.5176C283.445 63.4277 284.564 62.5781 286.018 61.9688C287.482 61.3594 289.123 61.0547 290.939 61.0547C292.768 61.0547 294.396 61.3887 295.826 62.0566C297.256 62.7129 298.363 63.6445 299.148 64.8516C299.945 66.0586 300.344 67.4297 300.344 68.9648H295.07C295.07 67.793 294.701 66.8848 293.963 66.2402C293.225 65.584 292.188 65.2559 290.852 65.2559C289.562 65.2559 288.561 65.5312 287.846 66.082C287.131 66.6211 286.773 67.3359 286.773 68.2266C286.773 69.0586 287.189 69.7559 288.021 70.3184C288.865 70.8809 290.102 71.4082 291.73 71.9004C294.73 72.8027 296.916 73.9219 298.287 75.2578C299.658 76.5938 300.344 78.2578 300.344 80.25C300.344 82.4648 299.506 84.2051 297.83 85.4707C296.154 86.7246 293.898 87.3516 291.062 87.3516C289.094 87.3516 287.301 86.9941 285.684 86.2793C284.066 85.5527 282.83 84.5625 281.975 83.3086C281.131 82.0547 280.709 80.6016 280.709 78.9492H286C286 81.7734 287.688 83.1855 291.062 83.1855C292.316 83.1855 293.295 82.9336 293.998 82.4297C294.701 81.9141 295.053 81.1992 295.053 80.2852ZM302.805 77.3145C302.805 75.4277 303.168 73.7461 303.895 72.2695C304.621 70.793 305.664 69.6504 307.023 68.8418C308.395 68.0332 309.982 67.6289 311.787 67.6289C314.354 67.6289 316.445 68.4141 318.062 69.9844C319.691 71.5547 320.6 73.6875 320.787 76.3828L320.822 77.6836C320.822 80.6016 320.008 82.9453 318.379 84.7148C316.75 86.4727 314.564 87.3516 311.822 87.3516C309.08 87.3516 306.889 86.4727 305.248 84.7148C303.619 82.957 302.805 80.5664 302.805 77.543V77.3145ZM307.885 77.6836C307.885 79.4883 308.225 80.8711 308.904 81.832C309.584 82.7812 310.557 83.2559 311.822 83.2559C313.053 83.2559 314.014 82.7871 314.705 81.8496C315.396 80.9004 315.742 79.3887 315.742 77.3145C315.742 75.5449 315.396 74.1738 314.705 73.2012C314.014 72.2285 313.041 71.7422 311.787 71.7422C310.545 71.7422 309.584 72.2285 308.904 73.2012C308.225 74.1621 307.885 75.6562 307.885 77.6836ZM323.16 77.3145C323.16 75.4277 323.523 73.7461 324.25 72.2695C324.977 70.793 326.02 69.6504 327.379 68.8418C328.75 68.0332 330.338 67.6289 332.143 67.6289C334.709 67.6289 336.801 68.4141 338.418 69.9844C340.047 71.5547 340.955 73.6875 341.143 76.3828L341.178 77.6836C341.178 80.6016 340.363 82.9453 338.734 84.7148C337.105 86.4727 334.92 87.3516 332.178 87.3516C329.436 87.3516 327.244 86.4727 325.604 84.7148C323.975 82.957 323.16 80.5664 323.16 77.543V77.3145ZM328.24 77.6836C328.24 79.4883 328.58 80.8711 329.26 81.832C329.939 82.7812 330.912 83.2559 332.178 83.2559C333.408 83.2559 334.369 82.7871 335.061 81.8496C335.752 80.9004 336.098 79.3887 336.098 77.3145C336.098 75.5449 335.752 74.1738 335.061 73.2012C334.369 72.2285 333.396 71.7422 332.143 71.7422C330.9 71.7422 329.939 72.2285 329.26 73.2012C328.58 74.1621 328.24 75.6562 328.24 77.6836ZM348.982 67.9805L349.141 70.1777C350.5 68.4785 352.322 67.6289 354.607 67.6289C356.623 67.6289 358.123 68.2207 359.107 69.4043C360.092 70.5879 360.596 72.3574 360.619 74.7129V87H355.539V74.8359C355.539 73.7578 355.305 72.9785 354.836 72.498C354.367 72.0059 353.588 71.7598 352.498 71.7598C351.068 71.7598 349.996 72.3691 349.281 73.5879V87H344.201V67.9805H348.982ZM373.715 84.5039C373.715 83.6953 373.984 83.0391 374.523 82.5352C375.074 82.0312 375.76 81.7793 376.58 81.7793C377.412 81.7793 378.098 82.0312 378.637 82.5352C379.188 83.0391 379.463 83.6953 379.463 84.5039C379.463 85.3008 379.193 85.9512 378.654 86.4551C378.115 86.9473 377.424 87.1934 376.58 87.1934C375.748 87.1934 375.062 86.9473 374.523 86.4551C373.984 85.9512 373.715 85.3008 373.715 84.5039ZM384.191 84.5039C384.191 83.6953 384.461 83.0391 385 82.5352C385.551 82.0312 386.236 81.7793 387.057 81.7793C387.889 81.7793 388.574 82.0312 389.113 82.5352C389.664 83.0391 389.939 83.6953 389.939 84.5039C389.939 85.3008 389.67 85.9512 389.131 86.4551C388.592 86.9473 387.9 87.1934 387.057 87.1934C386.225 87.1934 385.539 86.9473 385 86.4551C384.461 85.9512 384.191 85.3008 384.191 84.5039ZM394.668 84.5039C394.668 83.6953 394.938 83.0391 395.477 82.5352C396.027 82.0312 396.713 81.7793 397.533 81.7793C398.365 81.7793 399.051 82.0312 399.59 82.5352C400.141 83.0391 400.416 83.6953 400.416 84.5039C400.416 85.3008 400.146 85.9512 399.607 86.4551C399.068 86.9473 398.377 87.1934 397.533 87.1934C396.701 87.1934 396.016 86.9473 395.477 86.4551C394.938 85.9512 394.668 85.3008 394.668 84.5039ZM405.145 84.5039C405.145 83.6953 405.414 83.0391 405.953 82.5352C406.504 82.0312 407.189 81.7793 408.01 81.7793C408.842 81.7793 409.527 82.0312 410.066 82.5352C410.617 83.0391 410.893 83.6953 410.893 84.5039C410.893 85.3008 410.623 85.9512 410.084 86.4551C409.545 86.9473 408.854 87.1934 408.01 87.1934C407.178 87.1934 406.492 86.9473 405.953 86.4551C405.414 85.9512 405.145 85.3008 405.145 84.5039Z" fill="#FFD700"/>
<path d="M433.905 93.1749C426.333 93.1749 422.652 89.1561 422.652 80.8905V73.928C422.652 73.6905 422.668 73.5374 422.686 73.4436C422.905 73.5811 423.296 73.9311 423.596 74.1999C424.63 75.1249 426.046 76.3936 427.68 76.3936H427.715C427.771 76.3905 433.493 75.9624 438.155 75.9624C442.905 75.9624 443.733 76.403 443.874 76.5374C445.252 77.853 446.03 78.7342 446.03 81.503C446.03 87.1436 442.846 93.1749 433.905 93.1749V93.1749Z" fill="url(#paint0_radial)"/>
<path d="M423.121 74.4062C423.177 74.4562 423.23 74.503 423.28 74.5499C424.371 75.528 425.861 76.8655 427.677 76.8655C427.702 76.8655 427.724 76.8655 427.749 76.8624C427.805 76.8593 433.508 76.4312 438.155 76.4312C442.561 76.4312 443.446 76.8218 443.571 76.8937C444.88 78.1468 445.561 78.9312 445.561 81.4999C445.561 84.5218 444.624 87.2562 442.921 89.1968C440.877 91.5249 437.846 92.7062 433.905 92.7062C429.918 92.7062 427.124 91.5999 425.361 89.3249C423.874 87.403 423.121 84.5687 423.121 80.8937V74.4062V74.4062ZM422.565 72.9155C422.318 72.9155 422.183 73.1968 422.183 73.928V80.8905C422.183 87.903 424.774 93.6437 433.905 93.6437C443.036 93.6437 446.499 87.4843 446.499 81.4999C446.499 78.6249 445.668 77.603 444.199 76.1968C443.636 75.6593 441.09 75.4937 438.155 75.4937C433.418 75.4937 427.677 75.928 427.677 75.928C425.361 75.9249 423.371 72.9155 422.565 72.9155V72.9155Z" fill="#EDA600"/>
<path d="M441.94 79.45C441.627 79.45 441.633 79.4406 441.499 79.4188C440.483 79.2625 439.633 78.5188 439.362 77.525C439.312 77.3406 439.146 77.2063 438.958 77.1844C438.94 77.1813 438.915 77.1813 438.893 77.1813C438.727 77.1813 438.568 77.2688 438.483 77.4156C438.307 77.7274 438.067 77.9989 437.78 78.213C437.493 78.4271 437.164 78.5792 436.815 78.6594C436.621 78.7031 436.421 78.7281 436.224 78.7281C435.008 78.7281 433.965 77.9 433.69 76.7125L429.737 59.6625C429.412 58.2625 430.287 56.8625 431.683 56.5375C431.877 56.4937 432.077 56.4688 432.274 56.4688C433.49 56.4688 434.533 57.2969 434.808 58.4844L438.671 73.8C438.724 74.0094 438.915 74.1969 439.127 74.1969H439.149C439.371 74.1969 439.555 73.9812 439.593 73.7594L441.858 59.725C442.052 58.4625 443.158 57.5031 444.43 57.5031C444.562 57.5031 444.699 57.5094 444.83 57.5281C446.249 57.7469 447.227 59.075 447.008 60.4937L444.474 77.2406C444.274 78.5 443.19 79.45 441.94 79.45Z" fill="url(#paint1_radial)"/>
<path d="M432.277 56.9375C433.274 56.9375 434.127 57.6188 434.355 58.5906C434.355 58.5969 434.358 58.6031 434.358 58.6094L438.218 73.8719C438.269 74.0741 438.386 74.2535 438.551 74.3815C438.716 74.5094 438.919 74.5786 439.127 74.5781H439.168C439.612 74.5594 439.98 74.2313 440.052 73.7906L442.321 59.7687C442.48 58.7375 443.387 57.9562 444.427 57.9562C444.537 57.9562 444.646 57.9656 444.755 57.9812C445.918 58.1594 446.721 59.2531 446.54 60.4156L443.965 77.1625C443.805 78.1938 442.899 78.975 441.858 78.975C441.389 78.976 440.932 78.8218 440.559 78.5364C440.186 78.251 439.918 77.8504 439.796 77.3969C439.748 77.218 439.647 77.0575 439.508 76.9357C439.368 76.8139 439.195 76.7362 439.012 76.7125C438.971 76.7063 438.93 76.7063 438.893 76.7063C438.562 76.7063 438.249 76.8844 438.08 77.1781C437.78 77.7 437.296 78.0625 436.715 78.1969C436.555 78.2344 436.393 78.2531 436.23 78.2531C435.233 78.2531 434.38 77.5719 434.152 76.6L430.193 59.5562C429.927 58.4094 430.643 57.2594 431.79 56.9937C431.952 56.9562 432.115 56.9375 432.277 56.9375V56.9375ZM432.277 56C432.046 56 431.815 56.025 431.58 56.0813C429.927 56.4656 428.899 58.1156 429.28 59.7687L433.233 76.8156C433.562 78.2344 434.827 79.1938 436.224 79.1938C436.455 79.1938 436.687 79.1688 436.921 79.1125C437.787 78.9125 438.48 78.3625 438.89 77.6469C439.199 78.7844 440.149 79.6906 441.387 79.8813C441.546 79.9063 441.702 79.9188 441.858 79.9188C443.349 79.9188 444.658 78.8313 444.893 77.3125L447.468 60.5656C447.727 58.8875 446.574 57.3188 444.899 57.0625C444.74 57.0375 444.583 57.025 444.427 57.025C442.937 57.025 441.627 58.1125 441.393 59.6313L439.127 73.6437L435.268 58.3813C435.111 57.7051 434.73 57.1019 434.187 56.6696C433.644 56.2372 432.971 56.0013 432.277 56V56Z" fill="#EDA600"/>
<path d="M430.912 79.5593C429.518 79.5593 428.377 78.5124 428.252 77.1249L427.793 71.9874C427.73 71.2749 427.946 70.5812 428.405 70.0343C428.865 69.4874 429.508 69.1499 430.218 69.0843C430.299 69.078 430.38 69.0718 430.462 69.0718C431.13 69.0694 431.774 69.3185 432.267 69.7695C432.759 70.2206 433.064 70.8406 433.121 71.5062L433.58 76.6437C433.643 77.3562 433.427 78.0499 432.968 78.5968C432.508 79.1437 431.865 79.4812 431.155 79.5468C431.071 79.5562 430.99 79.5593 430.912 79.5593V79.5593Z" fill="url(#paint2_radial)"/>
<path d="M430.459 69.5405C431.587 69.5405 432.549 70.4218 432.652 71.5499L433.112 76.6874C433.165 77.2749 432.987 77.8468 432.609 78.2968C432.424 78.5201 432.196 78.7043 431.939 78.8384C431.682 78.9726 431.401 79.054 431.112 79.078C430.823 79.1056 430.531 79.0756 430.254 78.9897C429.977 78.9038 429.72 78.7638 429.497 78.5778C429.275 78.3918 429.091 78.1635 428.957 77.906C428.824 77.6486 428.742 77.3671 428.718 77.078L428.259 71.9405C428.205 71.353 428.384 70.7812 428.762 70.3312C428.947 70.1078 429.174 69.9237 429.431 69.7895C429.688 69.6554 429.97 69.5739 430.259 69.5499C430.324 69.5437 430.39 69.5405 430.459 69.5405ZM430.455 68.603C430.362 68.603 430.268 68.6062 430.171 68.6155C428.443 68.7718 427.165 70.2968 427.321 72.0249L427.784 77.1655C427.93 78.7999 429.302 80.028 430.912 80.028C431.005 80.028 431.099 80.0249 431.196 80.0155C432.924 79.8593 434.202 78.3343 434.046 76.6062L433.587 71.4687C433.437 69.8312 432.065 68.603 430.455 68.603V68.603Z" fill="#EDA600"/>
<path d="M425.843 80.4218C424.596 80.4218 423.505 79.5343 423.249 78.3156L422.527 74.8843C422.38 74.1906 422.515 73.4812 422.902 72.8875C423.29 72.2937 423.884 71.8875 424.577 71.7406C424.759 71.7031 424.943 71.6843 425.127 71.6843C426.374 71.6843 427.465 72.5718 427.721 73.7906L428.443 77.2218C428.59 77.9156 428.455 78.625 428.068 79.2187C427.68 79.8125 427.087 80.2187 426.393 80.3656C426.212 80.4031 426.024 80.4218 425.843 80.4218V80.4218Z" fill="url(#paint3_radial)"/>
<path d="M425.127 72.1531C426.152 72.1531 427.049 72.8843 427.262 73.8875L427.984 77.3187C428.23 78.4968 427.474 79.6593 426.296 79.9062C426.146 79.9374 425.993 79.9531 425.843 79.9531C424.818 79.9531 423.921 79.2218 423.709 78.2187L422.987 74.7875C422.74 73.6093 423.496 72.4468 424.674 72.2C424.824 72.1687 424.974 72.1531 425.127 72.1531V72.1531ZM425.127 71.2156C424.915 71.2156 424.699 71.2375 424.48 71.2843C422.793 71.6406 421.712 73.2937 422.068 74.9812L422.79 78.4125C423.099 79.8843 424.396 80.8906 425.843 80.8906C426.055 80.8906 426.271 80.8687 426.49 80.8218C428.177 80.4656 429.259 78.8125 428.902 77.125L428.18 73.6937C427.868 72.225 426.571 71.2156 425.127 71.2156V71.2156Z" fill="#EDA600"/>
<path d="M442.218 82.9155C441.058 82.5748 439.783 82.453 438.665 82.9967C437.508 83.5592 436.924 84.6905 436.458 85.828C436.23 86.3873 437.137 86.628 437.362 86.078C437.746 85.1405 438.237 84.1873 439.224 83.7811C440.115 83.4123 441.071 83.5561 441.968 83.8217C442.549 83.9905 442.796 83.0873 442.218 82.9155V82.9155Z" fill="#EDA600"/>
<path d="M443.933 87.175C443.005 87.1593 441.765 85.9187 440.915 84.1562C440.19 82.65 438.824 82.0625 436.037 82.0625C435.255 82.0625 434.374 82.1093 433.333 82.2031C433.258 82.2093 433.18 82.2125 433.105 82.2125C431.912 82.2125 430.643 81.3875 430.221 80.3343C429.958 79.6812 429.937 78.6625 430.402 77.975C430.721 77.5062 431.221 77.2656 431.887 77.2656C432.93 77.2656 438.787 76.6187 439.583 76.5281C441.724 77.0375 447.055 78.7906 447.277 81.0906C447.515 83.5875 447.199 85.3343 446.337 86.2843C445.796 86.8812 445.04 87.1687 444.027 87.1687L443.933 87.175Z" fill="url(#paint4_radial)"/>
<path d="M439.552 77.0062C440.037 77.128 441.612 77.5468 443.196 78.2218C445.405 79.1655 446.724 80.228 446.812 81.1374C447.037 83.4968 446.762 85.1218 445.99 85.9718C445.543 86.4655 444.899 86.703 444.027 86.703H443.943C443.308 86.6905 442.162 85.6593 441.34 83.9499C440.533 82.2749 438.999 81.5937 436.04 81.5937C435.246 81.5937 434.346 81.6405 433.293 81.7374C433.233 81.7437 433.171 81.7468 433.105 81.7468C432.09 81.7468 431.012 81.0499 430.655 80.1624C430.446 79.6374 430.421 78.7874 430.79 78.2405C431.018 77.903 431.377 77.7374 431.887 77.7374C432.93 77.7374 438.365 77.1405 439.552 77.0062V77.0062ZM439.612 76.0562C439.612 76.0562 432.971 76.7999 431.887 76.7999C429.618 76.7999 429.243 79.1624 429.787 80.5124C430.296 81.778 431.743 82.6843 433.105 82.6843C433.196 82.6843 433.287 82.6812 433.377 82.6718C434.412 82.578 435.29 82.5312 436.037 82.5312C439.021 82.5312 439.955 83.2437 440.49 84.3593C441.415 86.2843 442.79 87.6249 443.921 87.6437H444.021C447.787 87.6437 448.008 83.8624 447.74 81.0499C447.44 77.8718 439.612 76.0562 439.612 76.0562V76.0562Z" fill="#EDA600"/>
<defs>
<radialGradient id="paint0_radial" cx="0" cy="0" r="1" gradientUnits="userSpaceOnUse" gradientTransform="translate(433.568 80.2941) rotate(14.0032) scale(10.7614 15.0008)">
<stop offset="0.249" stop-color="#FFB300"/>
<stop offset="0.683" stop-color="#FFCA28"/>
<stop offset="1" stop-color="#FFB300"/>
</radialGradient>
<radialGradient id="paint1_radial" cx="0" cy="0" r="1" gradientUnits="userSpaceOnUse" gradientTransform="translate(438.475 61.0872) rotate(90) scale(22.3388 23.4981)">
<stop stop-color="#FFCA28"/>
<stop offset="1" stop-color="#FFB300"/>
</radialGradient>
<radialGradient id="paint2_radial" cx="0" cy="0" r="1" gradientUnits="userSpaceOnUse" gradientTransform="translate(430.306 70.9924) rotate(84.0018) scale(6.69219 4.46052)">
<stop offset="0.599" stop-color="#FFCA28"/>
<stop offset="1" stop-color="#FFB300"/>
</radialGradient>
<radialGradient id="paint3_radial" cx="0" cy="0" r="1" gradientUnits="userSpaceOnUse" gradientTransform="translate(424.913 73.6207) rotate(78.2285) scale(5.43465 3.84515)">
<stop offset="0.599" stop-color="#FFCA28"/>
<stop offset="1" stop-color="#FFB300"/>
</radialGradient>
<radialGradient id="paint4_radial" cx="0" cy="0" r="1" gradientUnits="userSpaceOnUse" gradientTransform="translate(435.331 80.1289) scale(11.0046 12.0213)">
<stop stop-color="#FFCA28"/>
<stop offset="1" stop-color="#FFB300"/>
</radialGradient>
</defs>
</svg>
